{
	"asset":{
		"generator":"Khronos glTF Blender I/O v4.3.47",
		"version":"2.0"
	},
	"scene":0,
	"scenes":[
		{
			"name":"Scene",
			"nodes":[
				0
			]
		}
	],
	"nodes":[
		{
			"mesh":0,
			"name":"Icosphere"
		}
	],
	"materials":[
		{
			"doubleSided":true,
			"name":"Material.001",
			"pbrMetallicRoughness":{
				"baseColorFactor":[
					0.7358338236808777,
					0.7358338236808777,
					0.7358338236808777,
					1
				],
				"metallicFactor":0,
				"roughnessFactor":0.5
			}
		},
		{
			"doubleSided":true,
			"name":"Material.002",
			"pbrMetallicRoughness":{
				"baseColorFactor":[
					0.09169987589120865,
					0.25286078453063965,
					0.800481915473938,
					1
				],
				"metallicFactor":0,
				"roughnessFactor":0.5
			}
		}
	],
	"meshes":[
		{
			"name":"Icosphere",
			"primitives":[
				{
					"attributes":{
						"POSITION":0,
						"NORMAL":1,
						"TEXCOORD_0":2
					},
					"indices":3,
					"material":0
				},
				{
					"attributes":{
						"POSITION":4,
						"NORMAL":5,
						"TEXCOORD_0":6
					},
					"indices":7,
					"material":1
				}
			]
		}
	],
	"accessors":[
		{
			"bufferView":0,
			"componentType":5126,
			"count":1684,
			"max":[
				0.8687596917152405,
				0.9569420218467712,
				0.875159740447998
			],
			"min":[
				-0.9191423654556274,
				-0.1487421840429306,
				-0.8751596212387085
			],
			"type":"VEC3"
		},
		{
			"bufferView":1,
			"componentType":5126,
			"count":1684,
			"type":"VEC3"
		},
		{
			"bufferView":2,
			"componentType":5126,
			"count":1684,
			"type":"VEC2"
		},
		{
			"bufferView":3,
			"componentType":5123,
			"count":3990,
			"type":"SCALAR"
		},
		{
			"bufferView":4,
			"componentType":5126,
			"count":3786,
			"max":[
				0.7325794696807861,
				0.7555916905403137,
				0.8745511770248413
			],
			"min":[
				-0.7264153361320496,
				0.014302284456789494,
				-0.6896476745605469
			],
			"type":"VEC3"
		},
		{
			"bufferView":5,
			"componentType":5126,
			"count":3786,
			"type":"VEC3"
		},
		{
			"bufferView":6,
			"componentType":5126,
			"count":3786,
			"type":"VEC2"
		},
		{
			"bufferView":7,
			"componentType":5123,
			"count":8862,
			"type":"SCALAR"
		}
	],
	"bufferViews":[
		{
			"buffer":0,
			"byteLength":20208,
			"byteOffset":0,
			"target":34962
		},
		{
			"buffer":0,
			"byteLength":20208,
			"byteOffset":20208,
			"target":34962
		},
		{
			"buffer":0,
			"byteLength":13472,
			"byteOffset":40416,
			"target":34962
		},
		{
			"buffer":0,
			"byteLength":7980,
			"byteOffset":53888,
			"target":34963
		},
		{
			"buffer":0,
			"byteLength":45432,
			"byteOffset":61868,
			"target":34962
		},
		{
			"buffer":0,
			"byteLength":45432,
			"byteOffset":107300,
			"target":34962
		},
		{
			"buffer":0,
			"byteLength":30288,
			"byteOffset":152732,
			"target":34962
		},
		{
			"buffer":0,
			"byteLength":17724,
			"byteOffset":183020,
			"target":34963
		}
	],
	"buffers":[
		{
			"byteLength":200744,
			"uri":"d10-2.bin"
		}
	]
}
