{
	"asset":{
		"generator":"Khronos glTF Blender I/O v4.3.47",
		"version":"2.0"
	},
	"scene":0,
	"scenes":[
		{
			"name":"Scene",
			"nodes":[
				0
			]
		}
	],
	"nodes":[
		{
			"mesh":0,
			"name":"Icosphere"
		}
	],
	"materials":[
		{
			"doubleSided":true,
			"name":"Material.001",
			"pbrMetallicRoughness":{
				"baseColorFactor":[
					0.8004660606384277,
					0.07484692335128784,
					0.002757461043074727,
					1
				],
				"metallicFactor":0.20000000298023224,
				"roughnessFactor":0.4566929042339325
			}
		},
		{
			"doubleSided":true,
			"name":"Material",
			"pbrMetallicRoughness":{
				"baseColorFactor":[
					0.800000011920929,
					0.800000011920929,
					0.800000011920929,
					1
				],
				"metallicFactor":0,
				"roughnessFactor":0.5
			}
		}
	],
	"meshes":[
		{
			"name":"Icosphere",
			"primitives":[
				{
					"attributes":{
						"POSITION":0,
						"NORMAL":1,
						"TEXCOORD_0":2
					},
					"indices":3,
					"material":0
				},
				{
					"attributes":{
						"POSITION":4,
						"NORMAL":5,
						"TEXCOORD_0":6
					},
					"indices":7,
					"material":1
				}
			]
		}
	],
	"accessors":[
		{
			"bufferView":0,
			"componentType":5126,
			"count":962,
			"max":[
				0.4123168885707855,
				0.6835418939590454,
				0.4135492146015167
			],
			"min":[
				-0.5613670349121094,
				-0.0006027728668414056,
				-0.5609092712402344
			],
			"type":"VEC3"
		},
		{
			"bufferView":1,
			"componentType":5126,
			"count":962,
			"type":"VEC3"
		},
		{
			"bufferView":2,
			"componentType":5126,
			"count":962,
			"type":"VEC2"
		},
		{
			"bufferView":3,
			"componentType":5123,
			"count":2640,
			"type":"SCALAR"
		},
		{
			"bufferView":4,
			"componentType":5126,
			"count":3189,
			"max":[
				0.38043805956840515,
				0.6376359462738037,
				0.37738052010536194
			],
			"min":[
				-0.5035368800163269,
				-0.0005446550203487277,
				-0.481909841299057
			],
			"type":"VEC3"
		},
		{
			"bufferView":5,
			"componentType":5126,
			"count":3189,
			"type":"VEC3"
		},
		{
			"bufferView":6,
			"componentType":5126,
			"count":3189,
			"type":"VEC2"
		},
		{
			"bufferView":7,
			"componentType":5123,
			"count":6846,
			"type":"SCALAR"
		}
	],
	"bufferViews":[
		{
			"buffer":0,
			"byteLength":11544,
			"byteOffset":0,
			"target":34962
		},
		{
			"buffer":0,
			"byteLength":11544,
			"byteOffset":11544,
			"target":34962
		},
		{
			"buffer":0,
			"byteLength":7696,
			"byteOffset":23088,
			"target":34962
		},
		{
			"buffer":0,
			"byteLength":5280,
			"byteOffset":30784,
			"target":34963
		},
		{
			"buffer":0,
			"byteLength":38268,
			"byteOffset":36064,
			"target":34962
		},
		{
			"buffer":0,
			"byteLength":38268,
			"byteOffset":74332,
			"target":34962
		},
		{
			"buffer":0,
			"byteLength":25512,
			"byteOffset":112600,
			"target":34962
		},
		{
			"buffer":0,
			"byteLength":13692,
			"byteOffset":138112,
			"target":34963
		}
	],
	"buffers":[
		{
			"byteLength":151804,
			"uri":"d4.bin"
		}
	]
}
