{
	"asset":{
		"generator":"Khronos glTF Blender I/O v4.3.47",
		"version":"2.0"
	},
	"scene":0,
	"scenes":[
		{
			"name":"Scene",
			"nodes":[
				0
			]
		}
	],
	"nodes":[
		{
			"mesh":0,
			"name":"Cube"
		}
	],
	"materials":[
		{
			"doubleSided":true,
			"name":"black",
			"pbrMetallicRoughness":{
				"baseColorFactor":[
					0,
					0,
					0,
					1
				],
				"metallicFactor":0,
				"roughnessFactor":0.5
			}
		},
		{
			"doubleSided":true,
			"name":"Material",
			"pbrMetallicRoughness":{
				"baseColorFactor":[
					0.19554373621940613,
					0.43113428354263306,
					0.8004324436187744,
					1
				],
				"metallicFactor":0,
				"roughnessFactor":0.5
			}
		}
	],
	"meshes":[
		{
			"name":"Cube.001",
			"primitives":[
				{
					"attributes":{
						"POSITION":0,
						"NORMAL":1,
						"TEXCOORD_0":2
					},
					"indices":3,
					"material":0
				},
				{
					"attributes":{
						"POSITION":4,
						"NORMAL":5,
						"TEXCOORD_0":6
					},
					"indices":7,
					"material":1
				}
			]
		}
	],
	"accessors":[
		{
			"bufferView":0,
			"componentType":5126,
			"count":1394,
			"max":[
				1,
				1,
				1
			],
			"min":[
				-1,
				-1,
				-1
			],
			"type":"VEC3"
		},
		{
			"bufferView":1,
			"componentType":5126,
			"count":1394,
			"type":"VEC3"
		},
		{
			"bufferView":2,
			"componentType":5126,
			"count":1394,
			"type":"VEC2"
		},
		{
			"bufferView":3,
			"componentType":5123,
			"count":4065,
			"type":"SCALAR"
		},
		{
			"bufferView":4,
			"componentType":5126,
			"count":835,
			"max":[
				1,
				1,
				1
			],
			"min":[
				-1,
				-1,
				-1
			],
			"type":"VEC3"
		},
		{
			"bufferView":5,
			"componentType":5126,
			"count":835,
			"type":"VEC3"
		},
		{
			"bufferView":6,
			"componentType":5126,
			"count":835,
			"type":"VEC2"
		},
		{
			"bufferView":7,
			"componentType":5123,
			"count":1947,
			"type":"SCALAR"
		}
	],
	"bufferViews":[
		{
			"buffer":0,
			"byteLength":16728,
			"byteOffset":0,
			"target":34962
		},
		{
			"buffer":0,
			"byteLength":16728,
			"byteOffset":16728,
			"target":34962
		},
		{
			"buffer":0,
			"byteLength":11152,
			"byteOffset":33456,
			"target":34962
		},
		{
			"buffer":0,
			"byteLength":8130,
			"byteOffset":44608,
			"target":34963
		},
		{
			"buffer":0,
			"byteLength":10020,
			"byteOffset":52740,
			"target":34962
		},
		{
			"buffer":0,
			"byteLength":10020,
			"byteOffset":62760,
			"target":34962
		},
		{
			"buffer":0,
			"byteLength":6680,
			"byteOffset":72780,
			"target":34962
		},
		{
			"buffer":0,
			"byteLength":3894,
			"byteOffset":79460,
			"target":34963
		}
	],
	"buffers":[
		{
			"byteLength":83356,
			"uri":"d6.bin"
		}
	]
}
