{
	"asset":{
		"generator":"Khronos glTF Blender I/O v4.3.47",
		"version":"2.0"
	},
	"scene":0,
	"scenes":[
		{
			"name":"Scene",
			"nodes":[
				0
			]
		}
	],
	"nodes":[
		{
			"mesh":0,
			"name":"Plane"
		}
	],
	"materials":[
		{
			"doubleSided":true,
			"name":"Material.001",
			"pbrMetallicRoughness":{
				"baseColorFactor":[
					0,
					0,
					0,
					1
				],
				"metallicFactor":0,
				"roughnessFactor":0.5
			}
		},
		{
			"doubleSided":true,
			"name":"Material.002",
			"pbrMetallicRoughness":{
				"baseColorFactor":[
					0.8002434968948364,
					0.46079766750335693,
					0.0471024215221405,
					1
				],
				"metallicFactor":0.6692913174629211,
				"roughnessFactor":0
			}
		}
	],
	"meshes":[
		{
			"name":"Plane",
			"primitives":[
				{
					"attributes":{
						"POSITION":0,
						"NORMAL":1,
						"TEXCOORD_0":2
					},
					"indices":3,
					"material":0
				},
				{
					"attributes":{
						"POSITION":4,
						"NORMAL":5,
						"TEXCOORD_0":6
					},
					"indices":7,
					"material":1
				}
			]
		}
	],
	"accessors":[
		{
			"bufferView":0,
			"componentType":5126,
			"count":1040,
			"max":[
				0.9592380523681641,
				1.1615674495697021,
				0.9592380523681641
			],
			"min":[
				-0.9592380523681641,
				-1.1615674495697021,
				-0.9592380523681641
			],
			"type":"VEC3"
		},
		{
			"bufferView":1,
			"componentType":5126,
			"count":1040,
			"type":"VEC3"
		},
		{
			"bufferView":2,
			"componentType":5126,
			"count":1040,
			"type":"VEC2"
		},
		{
			"bufferView":3,
			"componentType":5123,
			"count":2556,
			"type":"SCALAR"
		},
		{
			"bufferView":4,
			"componentType":5126,
			"count":2276,
			"max":[
				0.8370450735092163,
				0.8026973009109497,
				0.871863842010498
			],
			"min":[
				-0.8413805961608887,
				-0.7603973746299744,
				-0.8335639834403992
			],
			"type":"VEC3"
		},
		{
			"bufferView":5,
			"componentType":5126,
			"count":2276,
			"type":"VEC3"
		},
		{
			"bufferView":6,
			"componentType":5126,
			"count":2276,
			"type":"VEC2"
		},
		{
			"bufferView":7,
			"componentType":5123,
			"count":5856,
			"type":"SCALAR"
		}
	],
	"bufferViews":[
		{
			"buffer":0,
			"byteLength":12480,
			"byteOffset":0,
			"target":34962
		},
		{
			"buffer":0,
			"byteLength":12480,
			"byteOffset":12480,
			"target":34962
		},
		{
			"buffer":0,
			"byteLength":8320,
			"byteOffset":24960,
			"target":34962
		},
		{
			"buffer":0,
			"byteLength":5112,
			"byteOffset":33280,
			"target":34963
		},
		{
			"buffer":0,
			"byteLength":27312,
			"byteOffset":38392,
			"target":34962
		},
		{
			"buffer":0,
			"byteLength":27312,
			"byteOffset":65704,
			"target":34962
		},
		{
			"buffer":0,
			"byteLength":18208,
			"byteOffset":93016,
			"target":34962
		},
		{
			"buffer":0,
			"byteLength":11712,
			"byteOffset":111224,
			"target":34963
		}
	],
	"buffers":[
		{
			"byteLength":122936,
			"uri":"d8.bin"
		}
	]
}
